<?xml version="1.0" encoding="UTF-8" standalone="no"?>
<svg
   xmlns:osb="http://www.openswatchbook.org/uri/2009/osb"
   xmlns:dc="http://purl.org/dc/elements/1.1/"
   xmlns:cc="http://creativecommons.org/ns#"
   xmlns:rdf="http://www.w3.org/1999/02/22-rdf-syntax-ns#"
   xmlns:svg="http://www.w3.org/2000/svg"
   xmlns="http://www.w3.org/2000/svg"
   version="1.1"
   id="svg2"
   viewBox="0 0 24.000001 24.000001"
   height="6.7733335mm"
   width="6.7733335mm">
  <defs
     id="defs4">
    <linearGradient
       osb:paint="solid"
       id="linearGradient5595">
      <stop
         id="stop5597"
         offset="0"
         style="stop-color:#ffffff;stop-opacity:1;" />
    </linearGradient>
  </defs>
  <metadata
     id="metadata7">
    <rdf:RDF>
      <cc:Work
         rdf:about="">
        <dc:format>image/svg+xml</dc:format>
        <dc:type
           rdf:resource="http://purl.org/dc/dcmitype/StillImage" />
        <dc:title></dc:title>
      </cc:Work>
    </rdf:RDF>
  </metadata>
  <path
     id="path3383"
     style="fill:#3498db;fill-opacity:1;fill-rule:nonzero;stroke:#ffffff;stroke-width:0.69738346;stroke-miterlimit:4;stroke-dasharray:none;stroke-opacity:1"
     d="m 17.59782,6.41911 5.577805,5.580331 C 16.468693,12.160493 12.020015,23.1601 17.59782,6.41911 Z m -5.577805,-5.58033036 0,11.16066136 c 0,3.720219 0,7.44044 0,11.160659 L 6.4422116,17.579771 0.86440691,11.999441 C 7.5713386,12.160493 12.020015,23.1601 6.4422116,6.41911 Z" />
  <path
     id="path3383-1"
     style="fill:none;fill-opacity:1;fill-rule:nonzero"
     d="m 18.000001,6.0000013 6,6.0000007 c -7.214594,0.173165 -12.000001,12 -6,-6.0000007 z M 12,8.9645476e-7 12,12.000002 c 0,4 0,8 0,12 l -6,-6 -6,-6 c 7.214593,0.173165 12,12 6,-6.0000007 z" />
</svg>
