<?xml version="1.0" encoding="UTF-8" standalone="no"?>
<!-- Created with Inkscape (http://www.inkscape.org/) -->

<svg
   xmlns:dc="http://purl.org/dc/elements/1.1/"
   xmlns:cc="http://creativecommons.org/ns#"
   xmlns:rdf="http://www.w3.org/1999/02/22-rdf-syntax-ns#"
   xmlns:svg="http://www.w3.org/2000/svg"
   xmlns="http://www.w3.org/2000/svg"
   xmlns:xlink="http://www.w3.org/1999/xlink"
   xmlns:sodipodi="http://sodipodi.sourceforge.net/DTD/sodipodi-0.dtd"
   xmlns:inkscape="http://www.inkscape.org/namespaces/inkscape"
   id="svg4136"
   version="1.1"
   inkscape:version="0.91 r13725"
   width="500"
   height="121"
   viewBox="0 0 500 121"
   sodipodi:docname="mountains.svg">
  <metadata
     id="metadata4142">
    <rdf:RDF>
      <cc:Work
         rdf:about="">
        <dc:format>image/svg+xml</dc:format>
        <dc:type
           rdf:resource="http://purl.org/dc/dcmitype/StillImage" />
        <dc:title></dc:title>
      </cc:Work>
    </rdf:RDF>
  </metadata>
  <defs
     id="defs4140">
    <linearGradient
       inkscape:collect="always"
       id="linearGradient4148">
      <stop
         style="stop-color:#3498db;stop-opacity:1"
         offset="0"
         id="stop4150" />
      <stop
         style="stop-color:#9b59b6;stop-opacity:1"
         offset="1"
         id="stop4152" />
    </linearGradient>
    <linearGradient
       inkscape:collect="always"
       xlink:href="#linearGradient4148"
       id="linearGradient4162"
       x1="1244.1558"
       y1="201.71835"
       x2="1244.1558"
       y2="809.13409"
       gradientUnits="userSpaceOnUse"
       gradientTransform="matrix(0.19999944,0,0,0.19962269,0,-40.69438)" />
  </defs>
  <sodipodi:namedview
     pagecolor="#ffffff"
     bordercolor="#666666"
     borderopacity="1"
     objecttolerance="10"
     gridtolerance="10"
     guidetolerance="10"
     inkscape:pageopacity="0"
     inkscape:pageshadow="2"
     inkscape:window-width="1920"
     inkscape:window-height="1017"
     id="namedview4138"
     showgrid="false"
     fit-margin-top="0"
     fit-margin-left="0"
     fit-margin-right="0"
     fit-margin-bottom="0"
     inkscape:zoom="24.08"
     inkscape:cx="489.65812"
     inkscape:cy="91.131367"
     inkscape:window-x="-8"
     inkscape:window-y="-8"
     inkscape:window-maximized="1"
     inkscape:current-layer="svg4136" />
  <path
     style="fill:url(#linearGradient4162);fill-opacity:1"
     d="M 0,89.84287 0,34.2889 3.2450609,38.81306 c 1.2930096,1.80268 2.9674149,10.62368 4.80016,11.63014 1.7474185,0.95959 0.6252936,7.16664 3.8144131,7.31386 1.787495,0.0825 3.232887,2.92819 4.415461,3.00272 l 2.613506,-1.65666 3.03716,-2.92431 2.68963,-3.27117 4.035209,-1.60943 c 1.648903,-0.65766 3.899309,-0.16224 4.724307,-0.15993 l 2.484661,0.58232 2.265325,1.88306 3.249991,2.46118 5.374985,-2.76389 5.374985,-2.7639 7.18935,-11.0154 c 5.05959,-7.75223 7.916238,-7.9307 8.347035,-7.99283 0.441194,-0.0636 1.593113,-0.48369 2.935621,0.80556 0.977866,0.93907 2.470427,2.36657 3.316809,3.17222 l 1.538868,1.46481 1.853451,-1.27888 c 1.019401,-0.70338 2.141156,-0.78832 2.392675,-0.78832 0.251519,0 1.30412,0.0147 2.439229,0.63233 1.135111,0.61758 2.179854,1.12287 2.321654,1.12287 0.141801,0 1.865252,-1.40359 3.829895,-3.1191 2.345899,-2.04842 3.768789,-2.21976 4.145144,-2.21976 0.443575,0 1.34896,0.0796 4.006605,3.43264 l 3.43353,4.33198 7.24998,3.61904 7.24998,3.61903 6.46259,1.56258 7.44555,-0.23612 8.16644,-7.52775 c 5.284,-4.87075 10.78648,-10.97801 12.78736,-12.99659 l 3.55604,-2.93432 3.0819,-0.88927 3,-0.15344 3.22635,1.99982 c 1.77449,1.0999 3.39493,2.16808 3.60096,2.37373 0.20604,0.20565 1.40087,1.9712 2.65517,3.92344 l 2.28056,3.54954 4.11946,2.526 5.10242,0.60466 4.30058,-5.93333 c 5.12571,-7.07172 5.23227,-7.13681 6.6314,-5.1556 0.44234,0.62637 0.87506,1.13886 0.96159,1.13886 0.0865,0 0.59926,-0.33374 1.13937,-0.74164 1.03243,-0.7797 1.81886,-0.94335 2.28717,-0.47592 0.20684,0.20645 0.98842,-1.11512 2.98749,-5.05157 3.03534,-5.97703 2.47654,-5.42134 5.85147,-5.81871 1.39195,-0.16389 1.40959,-0.17689 11.37487,-8.38603 C 221.27774,2.85422 225.35157,0 225.65193,0 c 0.2802,0 1.82531,0.37966 3.15041,1.47962 2.05711,1.70758 2.46567,2.17264 2.79495,3.18149 0.2121,0.64985 1.34696,4.20534 2.52191,7.90108 1.17494,3.69573 2.70062,5.72189 2.75328,5.77443 0.0526,0.0525 0.70915,0.56779 2.09609,-0.12689 1.38692,-0.69468 2.71443,-1.26306 2.95003,-1.26306 0.2356,0 0.73664,0.2948 1.11344,0.6551 l 0.68506,0.6551 3.07859,-2.14944 c 1.69323,-1.1822 3.30361,-2.14593 3.57861,-2.14163 0.275,0.004 0.9991,0.4452 1.60911,0.97978 l 1.1091,0.97197 1.91914,-1.7268 c 1.05551,-0.94974 2.06081,-1.89721 2.23399,-2.10548 0.48676,-0.58544 1.3046,-0.45249 2.46751,0.40112 l 1.0624,0.77981 0.9722,-0.77981 c 0.53472,-0.42889 1.14927,-0.77981 1.36569,-0.77981 0.21642,0 1.72474,0.66607 3.35181,1.48015 l 2.95828,1.48015 3.45757,3.94709 c 1.90165,2.1709 3.48209,3.9823 3.51209,4.02534 0.03,0.043 1.02469,-0.21711 2.21043,-0.57811 1.18578,-0.36101 2.44771,-0.29376 2.75423,-0.25028 0.41714,0.0592 0.79394,0.28969 1.61994,1.88971 l 1.10353,2.13769 3.52145,0.95143 c 1.93678,0.52328 3.76487,1.10155 4.06241,1.28502 0.4084,0.25183 0.98588,1.67028 2.35578,5.78656 l 1.81477,4.81933 2.14422,1.3648 2.14421,0.73117 4.68725,6.36298 c 2.57799,3.49963 4.9428,6.58754 5.25514,6.86203 0.31236,0.27448 6.36124,3.94906 13.44196,8.16573 l 12.87407,7.66669 4.85122,1.13194 c 4.59015,1.07104 4.92371,1.18887 6.19861,2.18969 2.33869,1.83593 2.09397,1.74703 3.82611,1.38993 l 1.55701,-0.32099 3.00087,1.58446 3.0009,1.58446 2.65335,-0.44064 2.65333,-0.44064 2.94859,0.86122 2.94857,0.86123 4.99843,-0.69178 c 2.74915,-0.38048 5.07855,-0.73559 5.17643,-0.78913 0.0979,-0.0535 2.81019,-1.70054 6.02738,-3.66001 3.21719,-1.95946 6.0547,-3.61623 6.30558,-3.68171 0.25086,-0.0655 1.97102,0.25225 3.82255,0.70606 l 3.36645,0.82512 3.09093,-1.17211 c 1.7,-0.64466 3.31597,-1.17212 3.59103,-1.17212 0.27506,0 3.39745,1.18231 6.93868,2.62734 l 6.43858,2.62734 4.42331,-2.47179 4.42331,-2.47179 2.04239,-3.58656 c 1.12332,-1.97261 2.22546,-3.83921 2.44918,-4.148 0.4651,-0.64195 1.28349,-0.72904 1.87027,-0.19904 0.3607,0.32583 0.60024,0.0424 2.37272,-2.80719 1.08433,-1.74328 2.13943,-3.3661 2.34471,-3.60628 0.55082,-0.64451 1.35612,-0.53823 3.29101,0.43433 1.45584,0.73176 1.89973,1.11626 2.77663,2.40515 l 1.0438,1.53414 0.8519,-1.34465 c 0.46856,-0.73955 1.07029,-1.71223 1.33715,-2.16149 0.3698,-0.62249 1.03666,-1.07362 2.80273,-1.89604 2.9908,-1.39277 6.38055,-4.14458 10.00834,-8.12478 1.90713,-2.09237 2.90697,-3.00739 3.27681,-2.99881 0.29274,0.007 1.37525,0.44304 2.40561,0.96946 l 1.87336,0.9571 3.25163,-1.6269 3.25163,-1.62691 3.90549,0.17084 c 4.12887,0.18061 4.03929,0.19284 9.99157,-1.36368 0.72102,-0.18855 1.03148,-0.48105 1.58187,-1.49039 0.37662,-0.69069 0.92918,-1.41139 1.2279,-1.60156 1.15318,-0.73409 6.16782,-2.66919 6.71602,-2.59163 L 500,34.28885 500,77.6444 500,121 250,121 0,121 Z"
     id="path4146"
     inkscape:connector-curvature="0"
     sodipodi:nodetypes="ccsssscccsscccccsssscssssssscccccsscccssscccsssssssssscscssccscccscscssscscscscscscccscscssscccccccscssscssscccsscscsccccsscscccsscsscccccc" />
</svg>
