<?xml version="1.0" standalone="no"?>
<!DOCTYPE svg PUBLIC "-//W3C//DTD SVG 20010904//EN"
 "http://www.w3.org/TR/2001/REC-SVG-20010904/DTD/svg10.dtd">
<svg version="1.0" xmlns="http://www.w3.org/2000/svg"
 width="700.000000pt" height="700.000000pt" viewBox="0 0 700.000000 700.000000"
 preserveAspectRatio="xMidYMid meet">
<metadata>
Created by potrace 1.11, written by Peter Selinger 2001-2013
</metadata>
<g transform="translate(0.000000,700.000000) scale(0.100000,-0.100000)"
fill="#000000" stroke="none">
<path d="M2629 6131 c-476 -477 -869 -872 -872 -878 -3 -5 2 -34 13 -64 40
-116 271 -823 325 -994 31 -99 65 -205 75 -235 41 -124 100 -314 120 -385 13
-47 59 -203 85 -290 25 -81 91 -326 99 -367 3 -13 16 -77 30 -143 31 -150 38
-203 37 -283 -3 -217 -112 -200 -492 77 -43 31 -103 74 -135 96 -31 22 -62 46
-70 52 -7 7 -15 13 -18 13 -3 0 -32 20 -63 44 -238 179 -618 403 -873 514 -86
37 -312 119 -350 127 -8 2 -51 12 -96 24 -119 30 -434 71 -434 56 0 -3 785
-790 1745 -1750 l1745 -1745 0 3500 c0 1925 -1 3500 -2 3499 -2 0 -393 -391
-869 -868z"/>
<path d="M5241 5222 c-5 -15 -67 -200 -136 -412 -70 -212 -133 -403 -140 -425
-8 -22 -32 -96 -53 -165 -22 -69 -65 -204 -96 -300 -67 -214 -204 -676 -244
-825 -127 -474 -146 -700 -64 -744 29 -15 87 -4 155 30 78 40 192 118 529 360
196 141 356 247 510 337 146 85 371 198 453 228 28 9 55 20 60 24 19 13 221
79 303 100 129 32 267 55 401 65 35 2 66 6 68 9 3 2 -387 396 -865 874 -849
849 -871 870 -881 844z"/>
</g>
</svg>
