<?xml version="1.0" standalone="no"?>
<!DOCTYPE svg PUBLIC "-//W3C//DTD SVG 20010904//EN"
 "http://www.w3.org/TR/2001/REC-SVG-20010904/DTD/svg10.dtd">
<svg version="1.0" xmlns="http://www.w3.org/2000/svg"
 width="700.000000pt" height="700.000000pt" viewBox="0 0 700.000000 700.000000"
 preserveAspectRatio="xMidYMid meet">
<metadata>
Created by potrace 1.11, written by Peter Selinger 2001-2013
</metadata>
<g transform="translate(0.000000,700.000000) scale(0.100000,-0.100000)"
fill="#000000" stroke="none">
<path d="M3335 6990 c-946 -49 -1868 -506 -2500 -1239 -104 -121 -207 -260
-290 -393 l-64 -103 634 -3 635 -2 0 -875 0 -875 -874 0 -873 0 4 -92 c18
-432 95 -807 241 -1178 360 -919 1063 -1622 1982 -1982 371 -146 746 -223
1178 -241 l92 -4 0 3498 c0 2793 -3 3499 -12 3497 -7 0 -76 -4 -153 -8z"/>
<path d="M5250 5011 l0 -1511 873 0 873 0 -3 98 c-31 967 -492 1920 -1242
2567 -143 122 -287 226 -463 334 l-38 23 0 -1511z"/>
<path d="M5250 1114 l0 -636 23 14 c12 8 60 39 106 67 435 273 841 690 1120
1154 l23 37 -636 0 -636 0 0 -636z"/>
</g>
</svg>
