<svg version="1" xmlns="http://www.w3.org/2000/svg" width="933.333" height="933.333" viewBox="0 0 700.000000 700.000000"><path d="M262.9 86.9c-47.6 47.7-86.9 87.2-87.2 87.8-.3.5.2 3.4 1.3 6.4 4 11.6 27.1 82.3 32.5 99.4 3.1 9.9 6.5 20.5 7.5 23.5 4.1 12.4 10 31.4 12 38.5 1.3 4.7 5.9 20.3 8.5 29 2.5 8.1 9.1 32.6 9.9 36.7.3 1.3 1.6 7.7 3 14.3 3.1 15 3.8 20.3 3.7 28.3-.3 21.7-11.2 20-49.2-7.7-4.3-3.1-10.3-7.4-13.5-9.6-3.1-2.2-6.2-4.6-7-5.2-.7-.7-1.5-1.3-1.8-1.3-.3 0-3.2-2-6.3-4.4-23.8-17.9-61.8-40.3-87.3-51.4-8.6-3.7-31.2-11.9-35-12.7-.8-.2-5.1-1.2-9.6-2.4-11.9-3-43.4-7.1-43.4-5.6 0 .3 78.5 79 174.5 175L350 700V350c0-192.5-.1-350-.2-349.9-.2 0-39.3 39.1-86.9 86.8zM524.1 177.8c-.5 1.5-6.7 20-13.6 41.2-7 21.2-13.3 40.3-14 42.5-.8 2.2-3.2 9.6-5.3 16.5-2.2 6.9-6.5 20.4-9.6 30-6.7 21.4-20.4 67.6-24.4 82.5-12.7 47.4-14.6 70-6.4 74.4 2.9 1.5 8.7.4 15.5-3 7.8-4 19.2-11.8 52.9-36 19.6-14.1 35.6-24.7 51-33.7 14.6-8.5 37.1-19.8 45.3-22.8 2.8-.9 5.5-2 6-2.4 1.9-1.3 22.1-7.9 30.3-10 12.9-3.2 26.7-5.5 40.1-6.5 3.5-.2 6.6-.6 6.8-.9.3-.2-38.7-39.6-86.5-87.4-84.9-84.9-87.1-87-88.1-84.4z"/></svg>